<svg width="159" height="36" viewBox="0 0 159 36" fill="none" xmlns="http://www.w3.org/2000/svg">
<g clip-path="url(#clip0_1_19)">
<g clip-path="url(#clip1_1_19)">
<rect x="0.5" y="0.5" width="35" height="35" rx="7.5" stroke="url(#paint0_linear_1_19)" stroke-opacity="0.4"/>
<path d="M18.491 8.89296C18.491 8.62072 18.2717 8.40002 18.0012 8.40002C17.7306 8.40002 17.5113 8.62072 17.5113 8.89296V11.8506C17.5113 12.1228 17.7306 12.3435 18.0012 12.3435C18.2717 12.3435 18.491 12.1228 18.491 11.8506V8.89296Z" fill="white"/>
<path d="M18.491 8.89296C18.491 8.62072 18.2717 8.40002 18.0012 8.40002C17.7306 8.40002 17.5113 8.62072 17.5113 8.89296V11.8506C17.5113 12.1228 17.7306 12.3435 18.0012 12.3435C18.2717 12.3435 18.491 12.1228 18.491 11.8506V8.89296Z" fill="url(#paint1_linear_1_19)"/>
<path d="M10.8504 17.2482C10.9857 17.0124 10.9054 16.711 10.6711 16.5748L8.12555 15.096C7.89124 14.9599 7.59162 15.0407 7.45634 15.2765C7.32106 15.5122 7.40134 15.8137 7.63565 15.9498L10.1812 17.4286C10.4155 17.5648 10.7152 17.484 10.8504 17.2482Z" fill="white"/>
<path d="M10.8504 17.2482C10.9857 17.0124 10.9054 16.711 10.6711 16.5748L8.12555 15.096C7.89124 14.9599 7.59162 15.0407 7.45634 15.2765C7.32106 15.5122 7.40134 15.8137 7.63565 15.9498L10.1812 17.4286C10.4155 17.5648 10.7152 17.484 10.8504 17.2482Z" fill="url(#paint2_linear_1_19)"/>
<path d="M24.503 10.6814C24.6383 10.4457 24.558 10.1442 24.3237 10.0081C24.0894 9.87195 23.7898 9.95273 23.6545 10.1885L22.1848 12.7499C22.0495 12.9856 22.1298 13.2871 22.3641 13.4232C22.5984 13.5593 22.898 13.4786 23.0333 13.2428L24.503 10.6814Z" fill="white"/>
<path d="M24.503 10.6814C24.6383 10.4457 24.558 10.1442 24.3237 10.0081C24.0894 9.87195 23.7898 9.95273 23.6545 10.1885L22.1848 12.7499C22.0495 12.9856 22.1298 13.2871 22.3641 13.4232C22.5984 13.5593 22.898 13.4786 23.0333 13.2428L24.503 10.6814Z" fill="url(#paint3_linear_1_19)"/>
<path d="M13.6382 13.4232C13.8725 13.2871 13.9528 12.9856 13.8175 12.7499L12.3478 10.1885C12.2125 9.95273 11.9129 9.87195 11.6786 10.0081C11.4443 10.1442 11.364 10.4457 11.4993 10.6814L12.969 13.2428C13.1043 13.4786 13.4039 13.5593 13.6382 13.4232Z" fill="white"/>
<path d="M13.6382 13.4232C13.8725 13.2871 13.9528 12.9856 13.8175 12.7499L12.3478 10.1885C12.2125 9.95273 11.9129 9.87195 11.6786 10.0081C11.4443 10.1442 11.364 10.4457 11.4993 10.6814L12.969 13.2428C13.1043 13.4786 13.4039 13.5593 13.6382 13.4232Z" fill="url(#paint4_linear_1_19)"/>
<path d="M28.3666 15.9498C28.601 15.8137 28.6812 15.5122 28.546 15.2765C28.4107 15.0407 28.1111 14.9599 27.8767 15.096L25.3312 16.5748C25.0969 16.711 25.0166 17.0124 25.1519 17.2482C25.2871 17.484 25.5868 17.5648 25.8211 17.4286L28.3666 15.9498Z" fill="white"/>
<path d="M28.3666 15.9498C28.601 15.8137 28.6812 15.5122 28.546 15.2765C28.4107 15.0407 28.1111 14.9599 27.8767 15.096L25.3312 16.5748C25.0969 16.711 25.0166 17.0124 25.1519 17.2482C25.2871 17.484 25.5868 17.5648 25.8211 17.4286L28.3666 15.9498Z" fill="url(#paint5_linear_1_19)"/>
<path d="M22.5506 23.0527V27.0948C22.5506 27.3979 22.3485 27.6 22.0453 27.6H13.9611C13.6579 27.6 13.4558 27.3979 13.4558 27.0948V23.0527H17.4979V27.6H18.5085V23.0527H22.5506ZM17.4979 19.5158H12.9506C12.6474 19.5158 12.4453 19.7179 12.4453 20.0211V21.5369C12.4453 21.84 12.6474 22.0421 12.9506 22.0421H17.4979V19.5158ZM23.0558 19.5158H18.5085V22.0421H23.0558C23.359 22.0421 23.5611 21.84 23.5611 21.5369V20.0211C23.5611 19.7179 23.359 19.5158 23.0558 19.5158ZM21.5906 18.96L21.6411 18.7579C21.8432 18.2527 21.7927 17.6464 21.4895 17.1916C21.1864 16.7369 20.6306 16.4843 20.0748 16.4843C19.3674 16.4843 18.7611 16.8885 18.5085 17.5453L17.4979 20.0211H20.0243C20.6811 20.0211 21.3379 19.6169 21.5906 18.96ZM19.4685 17.899C19.5695 17.6464 19.8222 17.4948 20.0748 17.4948C20.2769 17.4948 20.479 17.5958 20.6306 17.7979C20.7316 18 20.7822 18.2021 20.6811 18.4043L20.6306 18.6064C20.5295 18.859 20.2769 19.0106 20.0243 19.0106H19.0137L19.4685 17.899ZM17.4979 17.5453C17.2453 16.8885 16.5885 16.4843 15.9316 16.4843C15.3758 16.4843 14.82 16.7369 14.5169 17.2421C14.2137 17.6969 14.1632 18.2527 14.3653 18.8085L14.4158 19.0106C14.6685 19.6169 15.3253 20.0211 15.9822 20.0211H18.4579L17.4979 17.5453ZM16.5379 17.899L16.9927 19.0106H15.9822C15.7295 19.0106 15.4769 18.859 15.3758 18.6064L15.2748 18.4043C15.2243 18.2021 15.2243 17.9495 15.3758 17.7979C15.4769 17.5958 15.679 17.4948 15.9316 17.4948C16.1843 17.4948 16.4369 17.6464 16.5379 17.899Z" fill="url(#paint6_linear_1_19)"/>
<path d="M22.5506 23.0527V27.0948C22.5506 27.3979 22.3485 27.6 22.0453 27.6H13.9611C13.6579 27.6 13.4558 27.3979 13.4558 27.0948V23.0527H17.4979V27.6H18.5085V23.0527H22.5506ZM17.4979 19.5158H12.9506C12.6474 19.5158 12.4453 19.7179 12.4453 20.0211V21.5369C12.4453 21.84 12.6474 22.0421 12.9506 22.0421H17.4979V19.5158ZM23.0558 19.5158H18.5085V22.0421H23.0558C23.359 22.0421 23.5611 21.84 23.5611 21.5369V20.0211C23.5611 19.7179 23.359 19.5158 23.0558 19.5158ZM21.5906 18.96L21.6411 18.7579C21.8432 18.2527 21.7927 17.6464 21.4895 17.1916C21.1864 16.7369 20.6306 16.4843 20.0748 16.4843C19.3674 16.4843 18.7611 16.8885 18.5085 17.5453L17.4979 20.0211H20.0243C20.6811 20.0211 21.3379 19.6169 21.5906 18.96ZM19.4685 17.899C19.5695 17.6464 19.8222 17.4948 20.0748 17.4948C20.2769 17.4948 20.479 17.5958 20.6306 17.7979C20.7316 18 20.7822 18.2021 20.6811 18.4043L20.6306 18.6064C20.5295 18.859 20.2769 19.0106 20.0243 19.0106H19.0137L19.4685 17.899ZM17.4979 17.5453C17.2453 16.8885 16.5885 16.4843 15.9316 16.4843C15.3758 16.4843 14.82 16.7369 14.5169 17.2421C14.2137 17.6969 14.1632 18.2527 14.3653 18.8085L14.4158 19.0106C14.6685 19.6169 15.3253 20.0211 15.9822 20.0211H18.4579L17.4979 17.5453ZM16.5379 17.899L16.9927 19.0106H15.9822C15.7295 19.0106 15.4769 18.859 15.3758 18.6064L15.2748 18.4043C15.2243 18.2021 15.2243 17.9495 15.3758 17.7979C15.4769 17.5958 15.679 17.4948 15.9316 17.4948C16.1843 17.4948 16.4369 17.6464 16.5379 17.899Z" fill="url(#paint7_linear_1_19)"/>
<path d="M22.5506 23.0527V27.0948C22.5506 27.3979 22.3485 27.6 22.0453 27.6H13.9611C13.6579 27.6 13.4558 27.3979 13.4558 27.0948V23.0527H17.4979V27.6H18.5085V23.0527H22.5506ZM17.4979 19.5158H12.9506C12.6474 19.5158 12.4453 19.7179 12.4453 20.0211V21.5369C12.4453 21.84 12.6474 22.0421 12.9506 22.0421H17.4979V19.5158ZM23.0558 19.5158H18.5085V22.0421H23.0558C23.359 22.0421 23.5611 21.84 23.5611 21.5369V20.0211C23.5611 19.7179 23.359 19.5158 23.0558 19.5158ZM21.5906 18.96L21.6411 18.7579C21.8432 18.2527 21.7927 17.6464 21.4895 17.1916C21.1864 16.7369 20.6306 16.4843 20.0748 16.4843C19.3674 16.4843 18.7611 16.8885 18.5085 17.5453L17.4979 20.0211H20.0243C20.6811 20.0211 21.3379 19.6169 21.5906 18.96ZM19.4685 17.899C19.5695 17.6464 19.8222 17.4948 20.0748 17.4948C20.2769 17.4948 20.479 17.5958 20.6306 17.7979C20.7316 18 20.7822 18.2021 20.6811 18.4043L20.6306 18.6064C20.5295 18.859 20.2769 19.0106 20.0243 19.0106H19.0137L19.4685 17.899ZM17.4979 17.5453C17.2453 16.8885 16.5885 16.4843 15.9316 16.4843C15.3758 16.4843 14.82 16.7369 14.5169 17.2421C14.2137 17.6969 14.1632 18.2527 14.3653 18.8085L14.4158 19.0106C14.6685 19.6169 15.3253 20.0211 15.9822 20.0211H18.4579L17.4979 17.5453ZM16.5379 17.899L16.9927 19.0106H15.9822C15.7295 19.0106 15.4769 18.859 15.3758 18.6064L15.2748 18.4043C15.2243 18.2021 15.2243 17.9495 15.3758 17.7979C15.4769 17.5958 15.679 17.4948 15.9316 17.4948C16.1843 17.4948 16.4369 17.6464 16.5379 17.899Z" fill="url(#paint8_linear_1_19)"/>
</g>
<path d="M62 14H63.584V25.52C63.584 29.168 60.656 31.088 57.56 31.088C54.8 31.088 52.808 30.032 51.872 28.16L53.264 27.368C53.864 28.592 54.968 29.552 57.56 29.552C60.344 29.552 62 27.968 62 25.52V23.648C60.992 25.256 59.288 26.288 57.152 26.288C53.768 26.288 50.96 23.552 50.96 20C50.96 16.448 53.768 13.712 57.152 13.712C59.288 13.712 60.992 14.744 62 16.352V14ZM57.272 24.752C59.936 24.752 62 22.664 62 20C62 17.336 59.936 15.248 57.272 15.248C54.608 15.248 52.544 17.336 52.544 20C52.544 22.664 54.608 24.752 57.272 24.752ZM72.5298 26.288C69.0258 26.288 66.2178 23.552 66.2178 20C66.2178 16.448 69.0258 13.712 72.5298 13.712C76.0338 13.712 78.8418 16.448 78.8418 20C78.8418 23.552 76.0338 26.288 72.5298 26.288ZM72.5298 24.752C75.1938 24.752 77.2578 22.664 77.2578 20C77.2578 17.336 75.1938 15.248 72.5298 15.248C69.8658 15.248 67.8018 17.336 67.8018 20C67.8018 22.664 69.8658 24.752 72.5298 24.752ZM87.0845 26.288C83.5805 26.288 80.7725 23.552 80.7725 20C80.7725 16.448 83.5805 13.712 87.0845 13.712C90.5885 13.712 93.3965 16.448 93.3965 20C93.3965 23.552 90.5885 26.288 87.0845 26.288ZM87.0845 24.752C89.7485 24.752 91.8125 22.664 91.8125 20C91.8125 17.336 89.7485 15.248 87.0845 15.248C84.4205 15.248 82.3565 17.336 82.3565 20C82.3565 22.664 84.4205 24.752 87.0845 24.752ZM106.367 9.2H107.951V26H106.367V23.648C105.359 25.256 103.655 26.288 101.519 26.288C98.1352 26.288 95.3272 23.552 95.3272 20C95.3272 16.448 98.1352 13.712 101.519 13.712C103.655 13.712 105.359 14.744 106.367 16.352V9.2ZM101.639 24.752C104.303 24.752 106.367 22.664 106.367 20C106.367 17.336 104.303 15.248 101.639 15.248C98.9752 15.248 96.9112 17.336 96.9112 20C96.9112 22.664 98.9752 24.752 101.639 24.752ZM119.945 14H121.625L116.489 27.104C115.577 29.408 113.801 30.968 111.641 30.8V29.312C113.201 29.48 114.281 28.376 114.929 26.816L115.241 26.072L109.865 14H111.545L116.057 24.056L119.945 14Z" fill="#9C74D9"/>
<path d="M140.52 26L139.54 23.18H133.58L132.6 26H130.1L135.18 12H137.94L143 26H140.52ZM134.34 21.02H138.78L136.56 14.7L134.34 21.02ZM149.665 12C152.305 12 154.305 14 154.305 16.6C154.305 19.18 152.305 21.2 149.665 21.2H146.805V26H144.505V12H149.665ZM149.665 19.04C151.025 19.04 152.005 18 152.005 16.6C152.005 15.18 151.025 14.16 149.665 14.16H146.805V19.04H149.665ZM156.302 12H158.602V26H156.302V12Z" fill="#9C74D9"/>
</g>
<defs>
<linearGradient id="paint0_linear_1_19" x1="30" y1="-2.4" x2="1.5" y2="38.7" gradientUnits="userSpaceOnUse">
<stop stop-color="#80D7FF"/>
<stop offset="1" stop-color="#E980FC"/>
</linearGradient>
<linearGradient id="paint1_linear_1_19" x1="25.0748" y1="7.79371" x2="20.8762" y2="21.9218" gradientUnits="userSpaceOnUse">
<stop stop-color="#80D7FF"/>
<stop offset="1" stop-color="#E980FC"/>
</linearGradient>
<linearGradient id="paint2_linear_1_19" x1="25.0748" y1="7.79371" x2="20.8762" y2="21.9218" gradientUnits="userSpaceOnUse">
<stop stop-color="#80D7FF"/>
<stop offset="1" stop-color="#E980FC"/>
</linearGradient>
<linearGradient id="paint3_linear_1_19" x1="25.0748" y1="7.79371" x2="20.8762" y2="21.9218" gradientUnits="userSpaceOnUse">
<stop stop-color="#80D7FF"/>
<stop offset="1" stop-color="#E980FC"/>
</linearGradient>
<linearGradient id="paint4_linear_1_19" x1="25.0748" y1="7.79371" x2="20.8762" y2="21.9218" gradientUnits="userSpaceOnUse">
<stop stop-color="#80D7FF"/>
<stop offset="1" stop-color="#E980FC"/>
</linearGradient>
<linearGradient id="paint5_linear_1_19" x1="25.0748" y1="7.79371" x2="20.8762" y2="21.9218" gradientUnits="userSpaceOnUse">
<stop stop-color="#80D7FF"/>
<stop offset="1" stop-color="#E980FC"/>
</linearGradient>
<linearGradient id="paint6_linear_1_19" x1="18.0032" y1="16.4843" x2="18.0032" y2="37.8" gradientUnits="userSpaceOnUse">
<stop stop-color="white"/>
<stop offset="1" stop-color="white" stop-opacity="0"/>
</linearGradient>
<linearGradient id="paint7_linear_1_19" x1="18.0032" y1="16.4843" x2="18.0032" y2="27.6" gradientUnits="userSpaceOnUse">
<stop offset="0.504809" stop-color="white"/>
<stop offset="1" stop-color="white" stop-opacity="0"/>
</linearGradient>
<linearGradient id="paint8_linear_1_19" x1="21.7085" y1="15.7432" x2="12.9085" y2="28.4337" gradientUnits="userSpaceOnUse">
<stop stop-color="#80D7FF"/>
<stop offset="1" stop-color="#E980FC"/>
</linearGradient>
<clipPath id="clip0_1_19">
<rect width="159" height="36" fill="white"/>
</clipPath>
<clipPath id="clip1_1_19">
<rect width="36" height="36" rx="8" fill="white"/>
</clipPath>
</defs>
</svg>
